<svg xmlns="http://www.w3.org/2000/svg" xmlns:xlink="http://www.w3.org/1999/xlink" width="500" height="500" viewBox="0 0 375 375" version="1.2"><defs><symbol overflow="visible" id="a"><path d="M19.656-2.094L16.86.766 4.72-11.375l12.14-12.14 2.797 2.859-9.265 9.281zm0 0"/></symbol><symbol overflow="visible" id="b"><path d="M20.938 0H16.03v-2.047c-.949.844-1.906 1.492-2.875 1.938-.96.437-2.058.656-3.297.656-1.418 0-2.734-.281-3.953-.844a9.237 9.237 0 01-3.14-2.39C1.89-3.708 1.203-4.926.703-6.345c-.5-1.426-.75-2.988-.75-4.687 0-1.676.25-3.227.75-4.656.5-1.426 1.188-2.649 2.063-3.672a9.337 9.337 0 013.14-2.391 9.052 9.052 0 013.953-.875c1.239 0 2.336.215 3.297.64.969.419 1.926 1.044 2.875 1.876v-6.407h-4.265v-4.422h9.171zM16.03-16.219c-.586-.644-1.34-1.14-2.265-1.484-.93-.344-1.809-.516-2.641-.516-1.855 0-3.367.668-4.531 2-1.157 1.324-1.735 3.055-1.735 5.188 0 2.136.579 3.86 1.735 5.172 1.164 1.312 2.676 1.968 4.531 1.968.832 0 1.71-.164 2.64-.5.926-.343 1.68-.836 2.266-1.484zm0 0"/></symbol><symbol overflow="visible" id="c"><path d="M4.5-9.172c.238 1.512.96 2.774 2.172 3.781 1.207 1 2.832 1.5 4.875 1.5 1.594 0 2.976-.242 4.156-.734 1.176-.5 2.192-1.16 3.047-1.984l2.516 3.453c-1.418 1.43-2.922 2.402-4.516 2.922-1.586.52-3.32.78-5.203.78-1.711 0-3.297-.28-4.766-.843-1.468-.57-2.742-1.367-3.812-2.39A11.049 11.049 0 01.438-6.329C-.164-7.734-.47-9.301-.47-11.031c0-1.676.278-3.219.828-4.625.563-1.414 1.352-2.64 2.375-3.672A10.664 10.664 0 016.39-21.75c1.425-.582 3.004-.875 4.734-.875 1.781 0 3.395.309 4.844.922a10.155 10.155 0 013.734 2.64c1.04 1.157 1.852 2.57 2.438 4.235.593 1.668.89 3.555.89 5.656zM17.469-13.5c-.25-1.414-.985-2.555-2.203-3.422-1.22-.863-2.602-1.297-4.141-1.297-1.555 0-2.95.434-4.188 1.297-1.23.867-1.968 2.008-2.218 3.422zm0 0"/></symbol><symbol overflow="visible" id="d"><path d="M22.094-22.094L13.937 0h-5.78L0-22.094h5.234l5.844 16.719 5.781-16.719zm0 0"/></symbol><symbol overflow="visible" id="e"><path d="M20.938 0H16.03v-13.64c0-1.72-.328-2.91-.984-3.579-.649-.664-1.586-1-2.813-1-1.812 0-3.293.742-4.437 2.219-1.149 1.469-1.719 3.5-1.719 6.094V0H1.156v-22.094h4.922v5.547c.488-1.914 1.395-3.406 2.719-4.469 1.32-1.07 2.957-1.609 4.906-1.609 2.258 0 4.031.734 5.313 2.203 1.28 1.469 1.922 3.73 1.922 6.781zm0 0"/></symbol><symbol overflow="visible" id="f"><path d="M14.031-24.969H8.062v-5.968h5.97zM18.547 0H3.703v-4.406h4.875v-13.266H3.703v-4.422H13.5v17.688h5.047zm0 0"/></symbol><symbol overflow="visible" id="g"><path d="M22.672-11.031c0 1.73-.277 3.297-.828 4.703-.543 1.406-1.324 2.621-2.344 3.64-1.023 1.024-2.246 1.82-3.672 2.391-1.418.563-3 .844-4.75.844-1.73 0-3.308-.281-4.734-.844-1.418-.57-2.637-1.367-3.657-2.39A10.25 10.25 0 01.345-6.329c-.54-1.406-.813-2.973-.813-4.703 0-1.676.274-3.227.813-4.656.539-1.426 1.32-2.657 2.344-3.688a10.462 10.462 0 013.656-2.406c1.426-.563 3.004-.844 4.734-.844 1.75 0 3.332.281 4.75.844a10.49 10.49 0 013.672 2.406c1.02 1.031 1.8 2.262 2.344 3.688.55 1.43.828 2.98.828 4.656zm-4.89 0c0-.989-.157-1.93-.47-2.828-.304-.895-.746-1.657-1.328-2.282a6.502 6.502 0 00-2.125-1.515c-.836-.375-1.761-.563-2.78-.563-1.044 0-1.977.188-2.798.563a6.29 6.29 0 00-2.094 1.515c-.574.625-1.015 1.387-1.328 2.282a8.737 8.737 0 00-.453 2.828c0 1.043.149 1.992.453 2.844a7.1 7.1 0 001.329 2.265 5.754 5.754 0 002.093 1.5c.82.356 1.754.531 2.797.531 1.02 0 1.945-.175 2.781-.53a5.938 5.938 0 002.125-1.5 6.825 6.825 0 001.329-2.266c.312-.852.468-1.801.468-2.844zm0 0"/></symbol><symbol overflow="visible" id="h"><path d="M21.547-16.86a9.058 9.058 0 00-1.797-.64c-.605-.156-1.297-.234-2.078-.234a9.644 9.644 0 00-3.078.484 6.673 6.673 0 00-2.485 1.469c-.687.648-1.23 1.453-1.625 2.422-.386.968-.578 2.12-.578 3.453v5.5h4.969V0H0v-4.406h5v-13.266H0v-4.422h9.906v5.547c.813-2.219 2.004-3.785 3.578-4.703 1.57-.914 3.442-1.375 5.61-1.375.676 0 1.383.074 2.125.219.75.148 1.476.398 2.187.75zm0 0"/></symbol><symbol overflow="visible" id="i"><path d="M21.5-6.61c0 1.438-.324 2.61-.969 3.516a7.321 7.321 0 01-2.5 2.172c-1.023.555-2.164.93-3.422 1.14-1.25.22-2.476.329-3.671.329a21.43 21.43 0 01-6.016-.875C2.93-.91 1.21-1.676-.234-2.625l2.03-4.031c1.74 1.011 3.333 1.726 4.782 2.14a15.62 15.62 0 004.36.625c1.968 0 3.398-.207 4.296-.625.907-.414 1.36-1 1.36-1.75 0-.363-.125-.66-.375-.89-.25-.239-.672-.457-1.266-.657-.586-.195-1.355-.394-2.312-.593a72.882 72.882 0 00-3.563-.625 31.353 31.353 0 01-3.234-.703c-1.024-.282-1.922-.672-2.703-1.172a5.98 5.98 0 01-1.86-1.922c-.46-.77-.687-1.742-.687-2.922 0-1.176.3-2.203.906-3.078A7.274 7.274 0 013.89-21c.989-.57 2.098-.984 3.329-1.234a18.196 18.196 0 013.718-.391 18.7 18.7 0 015.063.688c1.633.449 3.066 1.09 4.297 1.921l-1.938 3.797c-1.242-.77-2.445-1.297-3.609-1.578-1.156-.281-2.43-.422-3.813-.422-.593 0-1.21.04-1.843.11a7.636 7.636 0 00-1.75.375c-.532.18-.977.422-1.328.734-.356.305-.532.672-.532 1.11 0 .585.516 1.062 1.547 1.437 1.032.375 2.797.746 5.297 1.11 1.363.187 2.602.429 3.719.718 1.125.293 2.086.688 2.89 1.188a5.39 5.39 0 011.891 1.921c.445.782.672 1.75.672 2.907zm0 0"/></symbol><symbol overflow="visible" id="j"><path d="M18.453-32.39l3.64 1.796L3.939 5.97.28 4.172zm0 0"/></symbol><symbol overflow="visible" id="k"><path d="M11.719-11.375l-9.297-9.281 2.812-2.86 12.141 12.141L5.235.765 2.421-2.093zm0 0"/></symbol></defs><path d="M0 0h36.395" transform="matrix(2.54874 -2.7516 2.75112 2.5483 161.153 220.049)" fill="none" stroke="#242424"/><path d="M285.004 100.438h-67.758l66.492 60.39-66.492 60.36h67.758l66.492-60.36zM95.094 221.316h67.758l-66.493-60.39 66.493-60.36H95.094l-66.492 60.36zm0 0" fill="#242424"/><path d="M0 0h4.563" transform="matrix(19.2302 -20.9474 20.81497 19.10862 136.837 203.72)" fill="none" stroke="#ff914d"/><path d="M0 0h4.687" transform="matrix(18.72414 -20.39616 20.44221 18.76642 148.703 209.529)" fill="none" stroke="#ff914d"/><use xlink:href="#a" x="43.871" y="265.425" fill-opacity=".902"/><use xlink:href="#b" x="70.375" y="265.425" fill-opacity=".902"/><use xlink:href="#c" x="96.879" y="265.425" fill-opacity=".902"/><use xlink:href="#d" x="123.383" y="265.425" fill-opacity=".902"/><use xlink:href="#e" x="149.887" y="265.425" fill-opacity=".902"/><use xlink:href="#f" x="176.391" y="265.425" fill-opacity=".902"/><use xlink:href="#g" x="202.895" y="265.425" fill-opacity=".902"/><use xlink:href="#h" x="229.399" y="265.425" fill-opacity=".902"/><use xlink:href="#i" x="255.903" y="265.425" fill-opacity=".902"/><use xlink:href="#j" x="282.407" y="265.425" fill-opacity=".902"/><use xlink:href="#k" x="308.911" y="265.425" fill-opacity=".902"/><use xlink:href="#a" x="41.725" y="263.279" fill="#ffb037"/><use xlink:href="#b" x="68.229" y="263.279" fill="#ffb037"/><use xlink:href="#c" x="94.733" y="263.279" fill="#ffb037"/><use xlink:href="#d" x="121.237" y="263.279" fill="#ffb037"/><use xlink:href="#e" x="147.741" y="263.279" fill="#ffb037"/><use xlink:href="#f" x="174.245" y="263.279" fill="#ffb037"/><use xlink:href="#g" x="200.749" y="263.279" fill="#ffb037"/><use xlink:href="#h" x="227.253" y="263.279" fill="#ffb037"/><use xlink:href="#i" x="253.757" y="263.279" fill="#ffb037"/><use xlink:href="#j" x="280.261" y="263.279" fill="#ffb037"/><use xlink:href="#k" x="306.765" y="263.279" fill="#ffb037"/><path d="M0 0h36.395" transform="matrix(2.54874 -2.7516 2.75112 2.5483 158.974 217.979)" fill="none" stroke="#ff914d"/><path d="M0 0h36.395" transform="matrix(2.54874 -2.7516 2.75112 2.5483 130.054 199.766)" fill="none" stroke="#ff914d"/><path d="M0 0h36.395" transform="matrix(2.54874 -2.7516 2.75112 2.5483 126.95 201.836)" fill="none" stroke="#ff914d"/><path d="M0 0h36.394" transform="matrix(2.54874 -2.7516 2.75112 2.5483 129.304 203.311)" fill="none" stroke="#ff914d"/><path d="M0 0h36.377" transform="matrix(2.59476 -2.71091 2.70905 2.59298 130.426 204.165)" fill="none" stroke="#ff914d"/><path d="M0 0h36.395" transform="matrix(2.54874 -2.7516 2.75112 2.5483 124.203 199.766)" fill="none" stroke="#ff914d"/><path d="M0 0h36.395" transform="matrix(2.54874 -2.7516 2.75112 2.5483 126.2 201.086)" fill="none" stroke="#ff914d"/><path d="M0 0h36.394" transform="matrix(2.54874 -2.7516 2.75112 2.5483 127.804 203.311)" fill="none" stroke="#ff914d"/><path d="M282.078 98.367H214.32l66.493 60.39-66.493 60.36h67.758l66.492-60.36zM92.914 219.246h67.758l-66.492-60.39 66.492-60.36H92.914l-66.492 60.36zm0 0" fill="#ffb037"/></svg>