<svg xmlns="http://www.w3.org/2000/svg" width="500" height="500" viewBox="0 0 375 375" version="1.2"><path d="M0 0h36.395" transform="matrix(2.54874 -2.7516 2.75112 2.5483 160.063 247.703)" fill="none" stroke="#242424"/><path d="M283.168 128.09H215.41l66.492 60.39-66.492 60.36h67.758l66.492-60.36zM94.004 248.969h67.758L95.27 188.582l66.492-60.363H94.004l-66.492 60.363zm0 0" fill="#242424"/><path d="M0 0h4.563" transform="matrix(19.2302 -20.9474 20.81497 19.10862 136.124 231.374)" fill="none" stroke="#ff914d"/><path d="M0 0h4.686" transform="matrix(18.72414 -20.39616 20.44221 18.76642 147.614 237.183)" fill="none" stroke="#ff914d"/><path d="M0 0h36.394" transform="matrix(2.54874 -2.7516 2.75112 2.5483 157.884 245.633)" fill="none" stroke="#ff914d"/><path d="M280.988 126.02H213.23l66.493 60.39-66.493 60.36h67.758l66.492-60.36zM91.824 246.898h67.758L93.09 186.512l66.492-60.364H91.824l-66.492 60.364zm0 0" fill="#ffb037"/></svg>